<?xml version="1.0" encoding="UTF-8"?>
<svg version="1.1" xmlns="http://www.w3.org/2000/svg" width="2000" height="2000">
<path d="M0 0 C93.21877392 33.99258616 170.77458557 110.07708964 293.5973627 236.873053 C315.6452369 260.38011048 338.36154361 282.96611303 361.86875757 305.01177471 C437.49453916 375.95028869 513.72981124 449.16293229 619.32536732 720.9858368 C621.9934704 814.21837985 599.47440402 898.08350615 462.50264784 1074.8658303 C429.53859171 1109.65648275 394.83139276 1142.64554811 359.88155072 1175.4183291 C336.42441816 1197.42861019 313.88896672 1220.10702369 291.89360747 1243.576214 C221.09448261 1319.10342067 148.0051826 1395.2281245 -124.09928447 1500.6602668 C-217.60195804 1503.3469066 -301.75265117 1480.89375471 -478.94412472 1343.55183691 C-513.79400387 1310.51992664 -546.83897618 1275.74257545 -579.66580222 1240.72052406 C-601.71367642 1217.21346657 -624.42998313 1194.62746403 -647.93719709 1172.58180235 C-723.56297868 1101.64328836 -799.79825076 1028.43064477 -905.39380684 756.60774026 C-908.06190992 663.37519721 -885.54284354 579.51007091 -748.57108736 402.72774675 C-715.60703123 367.93709431 -680.89983227 334.94802895 -645.94999024 302.17524795 C-622.49285768 280.16496687 -599.95740624 257.48655336 -577.96204699 234.01736306 C-507.16292213 158.49015639 -434.07362212 82.36545255 0 0 Z M-145.56265266 520.70102294 C-146.22754296 521.36629296 -146.89243326 522.03156298 -147.57747175 522.71699269 C-148.72475377 523.86128814 -148.72475377 523.86128814 -149.8952132 525.02870066 C-150.74441804 525.88081834 -151.59362287 526.73293602 -152.46856119 527.61087544 C-153.36371358 528.50517341 -154.25886597 529.39947138 -155.18114419 530.32086928 C-157.67808726 532.81556417 -160.17188118 535.31338698 -162.66520013 537.81170328 C-165.34984232 540.50064518 -168.03735437 543.18671593 -170.72452738 545.87312825 C-175.38394109 550.53201642 -180.04151358 555.19273884 -184.69785692 559.85469563 C-191.43023433 566.59518399 -198.16535609 573.3329246 -204.90116096 580.06998767 C-215.8282477 590.99926557 -226.75309725 601.93077693 -237.67655374 612.86368306 C-248.29061976 623.48692154 -258.90573068 634.10911411 -269.52225687 644.729894 C-270.50309083 645.71112204 -270.50309083 645.71112204 -271.50373962 646.71217288 C-274.78396341 649.99370166 -278.06420784 653.27520981 -281.34446253 656.5567077 C-308.57758288 683.80020264 -335.80707842 711.04731824 -363.03421976 738.29678853 C-358.35701018 743.91528195 -353.36525052 749.10451024 -348.18842508 754.26283772 C-347.30941833 755.1426989 -346.43041157 756.02256008 -345.52476825 756.92908372 C-343.10018786 759.3550206 -340.67339813 761.77870728 -338.24562623 764.20144768 C-335.62221217 766.82052622 -333.00170628 769.44251175 -330.38083841 772.06413777 C-325.84482935 776.6006701 -321.30699914 781.13537406 -316.76791193 785.66882642 C-310.20522965 792.22336704 -303.64532429 798.78068111 -297.08608419 805.33866616 C-286.4429854 815.97957862 -275.79765733 826.61825796 -265.15091898 837.25552876 C-254.8112029 847.58605989 -244.47254206 857.9176452 -234.13529398 868.25064595 C-233.49765326 868.88802394 -232.86001255 869.52540193 -232.20304939 870.1820944 C-229.00406473 873.37977399 -225.80510076 876.57747426 -222.60614707 879.77518483 C-196.08537742 906.2855949 -169.56098629 932.79237911 -143.03421976 959.29678853 C-137.42983652 954.63056797 -132.25181288 949.65317758 -127.10613443 944.48895772 C-126.2303568 943.61403452 -125.35457918 942.73911131 -124.45226284 941.83767529 C-122.03772752 939.42449641 -119.62544236 937.00910843 -117.2141036 934.59273799 C-114.6072952 931.98159389 -111.99757963 929.37335815 -109.38822366 926.76476033 C-104.87297226 922.25003219 -100.35954917 917.73348297 -95.84737779 913.21567662 C-89.32360634 906.68376335 -82.7970613 900.15462716 -76.26984532 893.62615615 C-65.67884714 883.03297167 -55.09008208 872.43755794 -44.50272562 861.84073384 C-34.22069713 851.54952034 -23.93761441 841.25936211 -13.65311624 830.97061665 C-13.01872525 830.33596294 -12.38433426 829.70130922 -11.73071929 829.04742357 C-8.54802378 825.86342298 -5.36530758 822.67944308 -2.18258108 819.49547346 C24.20341491 793.09911797 50.58578502 766.699141 76.96578024 740.29678853 C72.28936809 734.68021829 67.2999935 729.48984983 62.12671469 724.33073933 C61.2484135 723.45087816 60.37011231 722.57101698 59.46519594 721.66449334 C57.0425458 719.23855827 54.61769079 716.81486713 52.19184576 714.39212938 C49.57047661 711.77303044 46.95199605 709.15104623 44.33313559 706.52943929 C39.21022381 701.40208928 34.08462258 696.27743606 28.95804012 691.15375646 C24.79397765 686.9919542 20.63089447 682.82917469 16.46850584 678.66569836 C15.8756802 678.07271949 15.28285456 677.47974061 14.6720645 676.86879268 C13.4677592 675.66416765 12.26345614 674.45954038 11.05915531 673.25491089 C-0.22179969 661.9711072 -11.50581307 650.69036596 -22.79088054 639.41067541 C-32.48221374 629.72381664 -42.17091237 620.03432926 -51.85770609 610.34293111 C-63.10689718 599.08839543 -74.35769959 587.83547462 -85.61110087 576.58514859 C-86.80941074 575.38715727 -88.00771852 574.18916386 -89.20602419 572.99116834 C-89.79563315 572.40171365 -90.3852421 571.81225897 -90.992718 571.20494202 C-95.15605403 567.04247098 -99.31822536 562.87883748 -103.47995378 558.71475919 C-108.54406984 553.64784654 -113.60994739 548.58270314 -118.67813289 543.51986083 C-121.26582643 540.93480514 -123.85269592 538.34893836 -126.43742563 535.76091893 C-129.23227981 532.9625612 -132.03095876 530.16804971 -134.83007242 527.37395222 C-135.6557298 526.54606413 -136.48138717 525.71817603 -137.33206447 524.86520042 C-138.44767073 523.75350577 -138.44767073 523.75350577 -139.58581449 522.61935265 C-140.55548807 521.64992261 -140.55548807 521.64992261 -141.54475101 520.66090812 C-143.55220603 518.82186246 -143.55220603 518.82186246 -145.56265266 520.70102294 Z " fill="#FBC531" transform="translate(1142.034219758585,260.7032114714384)"/>
<path d="M0 0 C87.11024456 -15.98997139 178.56153467 -25.95661923 373.60176751 24.83100146 C414.54532403 53.26005298 450.60133424 88.0822957 485.6015625 123.375 C487.15125133 124.93406614 488.70098366 126.49308904 490.25075948 128.05206871 C528.20383655 166.27455975 564.61068091 205.84173351 600.41005513 246.07772684 C623.58630578 272.12604169 647.1622132 297.74024592 671.16064453 323.03320312 C672.35951038 324.29717443 672.35951038 324.29717443 673.58259574 325.5866805 C681.61549878 334.05501051 689.65580124 342.516284 697.70152485 350.97243317 C714.0650375 368.17101144 730.37913777 385.41610976 746.66317749 402.68994141 C747.41056756 403.48263716 748.15795762 404.27533291 748.92799587 405.09204975 C798.12910004 457.28691448 846.16939434 510.55026612 894 564 C889.17411064 569.80964688 883.98752585 575.15166938 878.64092445 580.48212337 C877.69232271 581.43146581 876.74394054 582.38102768 875.79575676 583.33078757 C873.19273015 585.93687278 870.58660603 588.53984087 867.9799605 591.14230569 C865.14356057 593.97526323 862.31007308 596.81113127 859.47621381 599.64662987 C854.51029696 604.61461856 849.54252786 609.58074902 844.57353973 614.54566574 C837.1848536 621.92831468 829.79903875 629.31383113 822.4138095 636.69993796 C809.99035561 649.12470558 797.5645759 661.54714473 785.13747025 673.96825981 C772.83258693 686.26722667 760.5287377 698.56722652 748.22626877 710.86860847 C747.46141778 711.63339072 746.6965668 712.39817296 745.90853851 713.18613043 C742.02427279 717.07005782 738.14002553 720.95400369 734.25578539 724.83795667 C706.74169655 752.34994495 679.22528981 779.85961389 651.70751953 807.36791992 C624.97392369 834.09233182 598.2413781 860.81779356 571.51025391 887.54467773 C570.6863242 888.36847591 569.86239449 889.19227409 569.01349722 890.04103586 C560.73927873 898.31393583 552.4650816 906.58685715 544.1909001 914.85979411 C527.3353474 931.71281058 510.47965221 948.56568452 493.62387085 965.41847229 C492.8488647 966.19334115 492.07385856 966.96821 491.27536738 967.76655973 C439.51929859 1019.51342742 387.75990812 1071.25697264 336 1123 C328.59793685 1116.72329705 328.59793685 1116.72329705 325.56179905 1113.68484688 C324.67875264 1112.80478704 324.67875264 1112.80478704 323.7778669 1111.90694821 C322.84544203 1110.97015408 322.84544203 1110.97015408 321.8941803 1110.01443481 C321.21441318 1109.33552213 320.53464607 1108.65660944 319.83427995 1107.95712364 C317.5734205 1105.69790189 315.31613683 1103.43514207 313.05883789 1101.17236328 C311.43242518 1099.5456683 309.80579184 1097.91919387 308.17895508 1096.29292297 C303.77437577 1091.88863009 299.37288244 1087.4812649 294.97194219 1083.07333612 C290.36796976 1078.46310455 285.76115771 1073.85571228 281.15464783 1069.24801636 C273.42692513 1061.51754057 265.70094968 1053.78532258 257.97631836 1046.05175781 C250.02241688 1038.08866735 242.06745838 1030.12663529 234.11108398 1022.16601562 C233.62006878 1021.6747377 233.12905357 1021.18345977 232.62315912 1020.67729463 C230.15969904 1018.21252945 227.69621825 1015.74778497 225.23272717 1013.28305078 C204.81860656 992.85857543 184.40814981 972.43044131 164 952 C165.27168767 949.21736487 166.58137807 947.16883503 168.74267638 945.00892663 C169.30477026 944.44233817 169.86686413 943.8757497 170.44599116 943.29199189 C171.37424568 942.37161841 171.37424568 942.37161841 172.32125282 941.43265152 C172.98033787 940.77125878 173.63942293 940.10986604 174.31848025 939.42843109 C176.54373799 937.19785004 178.77609961 934.97451536 181.00845337 932.7510376 C182.61515426 931.14346512 184.22141581 929.53545345 185.82727373 927.92703891 C190.25347356 923.49635237 194.68591023 919.07195074 199.11935425 914.64851451 C203.40459356 910.3710045 207.68514117 906.08880807 211.96579479 901.80671028 C220.724104 893.04577174 229.48706543 884.28950048 238.2526741 875.53586578 C246.93359787 866.86676997 255.61245587 858.19561468 264.28855515 849.52169037 C265.09728227 848.71316946 265.09728227 848.71316946 265.92234732 847.8883148 C268.66033624 845.15100253 271.39828822 842.41365332 274.13622598 839.67628989 C293.53668963 820.28002874 312.94178763 800.88841015 332.34960938 781.49951172 C351.20579649 762.66168886 370.0598851 743.82176974 388.91113281 724.97900391 C389.49205751 724.39834226 390.07298221 723.81768062 390.67151068 723.21942316 C396.50531289 717.38825796 402.33907242 711.55705007 408.17280068 705.72581089 C420.05712232 693.84656187 431.94172883 681.96759787 443.82650757 670.08880615 C444.64619849 669.26952711 444.64619849 669.26952711 445.48244881 668.43369697 C481.98352824 631.95102354 518.49126854 595.47501574 555 559 C550.18310466 553.20197366 545.00840494 547.86918133 539.67215919 542.54911137 C538.72696831 541.60317978 537.781997 540.65702876 536.83722407 539.71067974 C534.24366775 537.11406494 531.64701414 534.52056714 529.04983892 531.92757272 C526.22370497 529.10488128 523.40048359 526.27927922 520.57689035 523.45404667 C515.62899824 518.50408275 510.67925395 513.55597702 505.72829056 508.60908508 C498.36640689 501.2532387 491.0073946 493.89452472 483.64896786 486.53522039 C471.27059178 474.15553061 458.88988993 461.77816927 446.50786209 449.40213203 C434.24763615 437.14782257 421.98844433 424.89248011 409.73063278 412.63575554 C408.96855449 411.87374599 408.2064762 411.11173644 407.42130463 410.32663569 C403.55111899 406.45678838 399.68095183 402.5869226 395.81079178 398.71704971 C368.39653153 371.30489003 340.97995341 343.89504968 313.56201172 316.48657227 C286.92542108 289.85916559 260.2898807 263.23070905 233.65576172 236.60083008 C232.83482012 235.78002001 232.01387853 234.95920994 231.16805992 234.11352684 C222.92384823 225.87063367 214.67965789 217.62771915 206.4354832 209.38478898 C189.64106231 192.59290432 172.84649892 175.80116219 156.05184937 159.00950623 C155.2796542 158.23744835 154.50745903 157.46539047 153.71186401 156.6699369 C102.14362968 105.11090365 50.57207367 53.55519289 -1 2 C-0.67 1.34 -0.34 0.68 0 0 Z " fill="#FD856B" transform="translate(835,270)"/>
<path d="M0 0 C15.94154332 87.41511555 25.89524546 179.14389749 -24.75632284 374.62228503 C-53.0793464 415.53204467 -87.80493255 451.55848485 -123.015625 486.515625 C-124.57058059 488.06286755 -126.12550547 489.61014094 -127.68039966 491.15744519 C-165.80021791 529.04634187 -205.27447432 565.37835498 -245.418513 601.10320789 C-271.4026157 624.227286 -296.94293018 647.75859539 -322.15869141 671.71826172 C-322.99871263 672.5161631 -323.83873386 673.31406448 -324.70421027 674.13614469 C-333.14638112 682.15575611 -341.58160875 690.18263898 -350.01221052 698.21441029 C-367.16317419 714.55300652 -384.36772312 730.83473508 -401.60247803 747.0848999 C-402.39351145 747.8308114 -403.18454488 748.5767229 -403.99954901 749.34523777 C-437.89219912 781.29663821 -472.19464911 812.78605759 -506.7742002 843.99196553 C-510.17111596 847.05779855 -513.56461557 850.1273842 -516.95714711 853.19806704 C-523.85884329 859.44457699 -530.77386308 865.67586422 -537.70623299 871.88831708 C-539.97870475 873.92518569 -542.24636151 875.96720363 -544.50990084 878.01399305 C-547.56535665 880.77577858 -550.6388233 883.51662495 -553.71522903 886.25505447 C-554.60796746 887.06631245 -555.50070589 887.87757043 -556.420497 888.71341199 C-557.23650006 889.43336805 -558.05250311 890.15332411 -558.89323354 890.89509702 C-559.59514635 891.52373189 -560.29705916 892.15236676 -561.02024205 892.80005117 C-563 894 -563 894 -565.0031341 893.92394844 C-567.53325326 892.7532641 -569.08184711 891.29464506 -571.0566209 889.32172793 C-571.86141284 888.52495899 -572.66620479 887.72819005 -573.49538437 886.9072766 C-574.37557388 886.02063528 -575.25576339 885.13399397 -576.16262531 884.22048473 C-577.11346639 883.2733782 -578.06496302 882.32692944 -579.01705673 881.38108215 C-581.64699896 878.76454896 -584.26745255 876.13868555 -586.88652609 873.51127929 C-589.7316164 870.66040709 -592.58533577 867.81819533 -595.43798083 864.97488624 C-600.44150548 859.98531 -605.4393769 854.99012582 -610.4336338 849.99127388 C-617.86005 842.55804254 -625.29496017 835.13335122 -632.73155767 827.71030757 C-646.78311152 813.68370481 -660.82441834 799.64687399 -674.86255477 785.60684451 C-685.69918512 774.7688429 -696.53840127 763.9334337 -707.37946129 753.09986305 C-708.93509117 751.54528349 -710.49071971 749.99070257 -712.0463469 748.43612031 C-712.81850956 747.66447699 -713.59067222 746.89283367 -714.38623375 746.09780722 C-715.54655369 744.9382675 -715.54655369 744.9382675 -716.73031443 743.75530273 C-717.50512203 742.98101912 -718.27992963 742.20673551 -719.07821625 741.40898876 C-740.87952418 719.62227059 -762.67767256 697.83239531 -784.46938038 676.03607464 C-785.29142898 675.21385408 -786.11347758 674.39163353 -786.96043674 673.5444972 C-791.12722811 669.37681689 -795.29399155 665.20910865 -799.46074525 661.04139068 C-800.28832861 660.21361629 -801.11591196 659.38584191 -801.96857359 658.53298345 C-803.64214815 656.8590218 -805.31572109 655.18505853 -806.98929242 653.51109365 C-833.04081142 627.45360218 -859.103019 601.40684367 -885.17358398 575.3684082 C-914.43982691 546.13820229 -943.69772634 516.89968103 -972.94347972 487.64897376 C-976.0588326 484.53315087 -979.17421537 481.41735786 -982.28961754 478.30158424 C-983.05674748 477.53435192 -983.82387742 476.7671196 -984.61425372 475.97663781 C-996.21875251 464.37094182 -1007.82983483 452.77185967 -1019.44425392 441.17609215 C-1032.64441918 427.9971143 -1045.83593397 414.80954976 -1059.01578829 401.61025818 C-1066.39998823 394.21569331 -1073.79109643 386.82819204 -1081.19211633 379.450461 C-1086.12657822 374.53015797 -1091.05200187 369.60093248 -1095.96997896 364.66415261 C-1098.77793393 361.84597946 -1101.5898043 359.03202556 -1104.41267047 356.22878178 C-1106.97579224 353.68331802 -1109.5273273 351.12683048 -1112.06973851 348.56068535 C-1113.42788748 347.19592009 -1114.79842969 345.84352317 -1116.16929355 344.49153015 C-1116.96156791 343.68725066 -1117.75384226 342.88297116 -1118.57012492 342.05431956 C-1119.60784741 341.0167601 -1119.60784741 341.0167601 -1120.666534 339.95823983 C-1122 338 -1122 338 -1121.78956899 335.84545363 C-1120.88277017 333.72599959 -1119.87544898 332.49734214 -1118.24878979 330.86567974 C-1117.66057168 330.268405 -1117.07235358 329.67113025 -1116.46631068 329.05575627 C-1115.48841727 328.08585475 -1115.48841727 328.08585475 -1114.49076843 327.09635925 C-1113.80261592 326.40211564 -1113.11446341 325.70787202 -1112.40545779 324.99259073 C-1110.08952925 322.65996601 -1107.76296279 320.33825113 -1105.4362793 318.01635742 C-1103.77700756 316.34974937 -1102.11836142 314.68251829 -1100.46029663 313.01470947 C-1095.94888323 308.48102899 -1091.42782032 303.95708898 -1086.90431571 299.43547606 C-1083.60837844 296.1404589 -1080.31653201 292.84136386 -1077.02470658 289.54223937 C-1076.55522114 289.07171445 -1076.08573569 288.60118952 -1075.60202342 288.11640626 C-1075.13086181 287.64420112 -1074.65970019 287.17199598 -1074.17426095 286.68548159 C-1065.26146019 277.75377519 -1056.33869973 268.83206959 -1047.41303317 259.91322313 C-1039.24092731 251.7466968 -1031.0821127 243.56703582 -1022.92936172 235.38119122 C-1014.56312007 226.98125258 -1006.18767428 218.59059319 -997.80225307 210.20979959 C-993.09252293 205.5023177 -988.38686235 200.79090253 -983.69046593 196.07011986 C-979.27665087 191.63414549 -974.85107989 187.21025468 -970.41598129 182.79556274 C-968.78621064 181.16922097 -967.16073749 179.53856009 -965.53980827 177.90340614 C-963.33457125 175.68015055 -961.11466707 173.47269445 -958.8901825 171.26872253 C-958.24494572 170.61096791 -957.59970894 169.95321329 -956.93491954 169.2755267 C-956.33887819 168.69129069 -955.74283684 168.10705469 -955.12873363 167.50511456 C-954.6174127 166.99352124 -954.10609177 166.48192792 -953.57927626 165.95483178 C-952 165 -952 165 -950.04747903 165.12382609 C-947.51215251 166.20876367 -946.06308254 167.56202445 -944.11160183 169.51366806 C-943.3461075 170.27195585 -942.58061316 171.03024364 -941.79192203 171.81150985 C-940.95739303 172.65341314 -940.12286403 173.49531642 -939.26304626 174.36273193 C-938.37153085 175.25027294 -937.48001543 176.13781395 -936.5614844 177.05225015 C-934.0839766 179.51914952 -931.61594543 181.99534531 -929.14934289 184.47314215 C-926.48873229 187.14257956 -923.81950827 189.80337959 -921.15135193 192.465271 C-915.92415189 197.68297154 -910.70504696 202.90869822 -905.48866957 208.1372163 C-899.41556019 214.223934 -893.3348423 220.30302669 -887.25386769 226.38188484 C-876.40409412 237.22846674 -865.56177225 248.08246753 -854.72338867 258.94042969 C-844.20374839 269.47906781 -833.6781743 280.01173365 -823.14624023 290.53808594 C-811.68313693 301.99513193 -800.22315888 313.45528625 -788.76876837 324.92104363 C-787.54736462 326.14365469 -786.32596021 327.36626509 -785.10455513 328.58887482 C-784.2030942 329.49124105 -784.2030942 329.49124105 -783.28342194 330.41183691 C-779.04650314 334.65263622 -774.80744946 338.89129437 -770.5676403 343.1292038 C-765.40023546 348.29448683 -760.23651975 353.4634253 -755.07743686 358.6370208 C-752.44465495 361.2770485 -749.81031151 363.91546558 -747.17162323 366.54959106 C-744.31228762 369.40410252 -741.46076088 372.26628835 -738.60997009 375.1293335 C-737.77321037 375.9623139 -736.93645064 376.7952943 -736.07433456 377.65351653 C-735.31144798 378.42223531 -734.54856139 379.19095409 -733.76255703 379.98296738 C-733.10363223 380.64275896 -732.44470742 381.30255054 -731.7658152 381.98233581 C-729.84204543 384.1804828 -728.48613213 386.4908223 -727 389 C-725.57755939 390.71165939 -725.57755939 390.71165939 -724.00713825 392.23895741 C-723.12036285 393.13170595 -723.12036285 393.13170595 -722.21567279 394.04248983 C-721.570732 394.68160493 -720.92579121 395.32072004 -720.26130676 395.97920227 C-719.57270669 396.66951119 -718.88410662 397.35982011 -718.17463988 398.07104748 C-715.86700241 400.38197812 -713.55229136 402.68568977 -711.23754883 404.98950195 C-709.5815254 406.64496123 -707.92594225 408.30086105 -706.27076721 409.95716858 C-701.77555592 414.45295423 -697.2742001 418.9425421 -692.77173066 423.43105721 C-688.54417044 427.64738974 -684.32121591 431.86832589 -680.09823748 436.08924665 C-671.734846 444.44826321 -663.36699995 452.80280565 -654.99633789 461.15454102 C-646.86606262 469.26645225 -638.73789505 477.38046588 -630.61254883 485.49731445 C-630.11152174 485.99781609 -629.61049465 486.49831773 -629.09428493 487.01398609 C-626.58073846 489.52492245 -624.06723332 492.03590018 -621.55374873 494.54689848 C-600.70890429 515.37101673 -579.85674805 536.18780405 -559 557 C-553.19640606 552.17909818 -547.86030649 546.99848286 -542.53628731 541.65654182 C-541.58895357 540.70964493 -540.64139972 539.76296821 -539.69364727 538.81649041 C-537.09312764 536.21820122 -534.49573016 533.6168106 -531.89883488 531.01489971 C-529.07190655 528.18362579 -526.2420571 525.35527403 -523.4125756 522.52655208 C-518.4551338 517.56964294 -513.49954599 512.61088637 -508.54516792 507.65091515 C-501.17815973 500.27561351 -493.8082704 492.90319597 -486.43776579 485.53138868 C-474.03910101 473.13038951 -461.64269534 460.72713444 -449.24750137 448.32266617 C-432.32783074 431.39039649 -415.40488382 414.46140418 -398.48105715 397.53328858 C-390.59912211 389.64934727 -382.71734767 381.7652454 -374.83561516 373.88110161 C-374.04662112 373.09186656 -373.25762709 372.30263151 -372.44472415 371.48948025 C-353.66676579 352.70571109 -334.89038104 333.92036915 -316.11425781 315.13476562 C-315.29271045 314.31280462 -314.47116309 313.49084361 -313.62472036 312.6439747 C-301.12475333 300.13771 -288.62486821 287.63136345 -276.125 275.125 C-262.78455278 261.77762173 -249.44407367 248.43027532 -236.10351562 235.08300781 C-235.28149456 234.26057216 -234.4594735 233.43813651 -233.61254271 232.59077857 C-214.85700477 213.82579818 -196.1010201 195.0612646 -177.34362602 176.29813957 C-176.55605745 175.51033001 -175.76848888 174.72252044 -174.9570546 173.91083786 C-167.09635433 166.04775274 -159.23557563 158.18474605 -151.37467961 150.32185663 C-134.46514132 133.40799546 -117.55698977 116.49275129 -100.65160722 99.57473639 C-88.33525095 87.24921821 -76.01720065 74.92539532 -63.69735403 62.60336585 C-56.36846569 55.27305759 -49.04101177 47.94132193 -41.71553682 40.60760248 C-36.83203968 35.71887674 -31.94676189 30.83193539 -27.05999037 25.94648272 C-24.26946566 23.15660344 -21.47976988 20.36590797 -18.69224025 17.57303585 C-15.70038662 14.57548128 -12.70474796 11.58173948 -9.70866585 8.58841133 C-8.82929946 7.70613208 -7.94993306 6.82385283 -7.04391921 5.91483784 C-5.85851931 4.73242455 -5.85851931 4.73242455 -4.64917195 3.52612412 C-3.96333152 2.83990397 -3.27749108 2.15368381 -2.57086761 1.44666911 C-1 0 -1 0 0 0 Z " fill="#FBCD2E" transform="translate(1729,835)"/>
<path d="M0 0 C2.71114272 1.1907328 4.37874158 2.94826285 6.46887564 5.04006107 C7.36950735 5.93446399 8.27013907 6.82886691 9.19806265 7.75037296 C10.17178135 8.7327779 11.14518293 9.71549725 12.1182897 10.69850833 C13.12097277 11.70171007 14.12417442 12.70439374 15.12787222 13.70658023 C17.22725932 15.80605697 19.32138771 17.91060007 21.41174673 20.01906497 C24.09570342 22.72575238 26.79063964 25.42118032 29.48934912 28.11314971 C31.56059409 30.18105953 33.62683139 32.25391279 35.69147848 34.32840831 C36.6837443 35.32453096 37.6773714 36.31929945 38.67235922 37.3127032 C40.05869254 38.69866715 41.43780262 40.09184506 42.81653189 41.48537357 C43.60388724 42.27733631 44.39124258 43.06929904 45.20245718 43.88526065 C46.8839147 45.82741458 46.8839147 45.82741458 46.8839147 47.82741458 C47.8739147 48.15741458 48.8639147 48.48741458 49.8839147 48.82741458 C51.59621718 50.44716017 53.25554732 52.12330918 54.8839147 53.82741458 C55.86043856 54.80921695 56.83968143 55.78832127 57.8214147 56.76491458 C59.86308137 58.80658125 61.90474803 60.84824792 63.9464147 62.88991458 C64.69338614 63.63664432 64.69338614 63.63664432 65.4554479 64.39845951 C66.73875795 65.68220821 68.02042594 66.96759791 69.30188345 68.25319583 C71.33663833 70.28179412 73.38204383 72.29750924 75.43469595 74.30788333 C76.68867855 75.54348294 77.94258354 76.77916131 79.1964147 78.01491458 C79.84159048 78.64333255 80.48676626 79.27175052 81.15149283 79.91921146 C81.76057486 80.52184818 82.36965689 81.1244849 82.99719595 81.74538333 C83.55189566 82.28960941 84.10659537 82.83383548 84.67810415 83.39455326 C85.8839147 84.82741458 85.8839147 84.82741458 85.8839147 86.82741458 C87.2039147 87.48741458 88.5239147 88.14741458 89.8839147 88.82741458 C89.8839147 89.48741458 89.8839147 90.14741458 89.8839147 90.82741458 C90.8739147 91.15741458 91.8639147 91.48741458 92.8839147 91.82741458 C94.28186392 93.24660404 94.28186392 93.24660404 95.8136022 95.12819583 C100.8718059 101.08879582 106.46381352 106.51416751 112.0089147 112.01491458 C113.09118179 113.09215165 114.17321456 114.16962419 115.25500845 115.24733646 C117.24331724 117.22755712 119.23320836 119.2061347 121.22424673 121.18361576 C123.01726915 122.96593995 124.80195609 124.75668405 126.57873892 126.55519779 C128.80968502 128.84968395 128.80968502 128.84968395 131.2589147 130.63991458 C133.38433506 132.41109821 134.87168896 133.94361099 136.6104772 136.04225833 C140.18978073 140.18033039 144.03426421 143.99347021 147.9464147 147.81178958 C148.90591528 148.75232433 148.90591528 148.75232433 149.88479971 149.71185977 C152.56738975 152.34028816 155.25132464 154.96691071 157.95373892 157.57497318 C159.9418365 159.49681661 161.91392671 161.43391076 163.8839147 163.37428958 C164.50145621 163.96288761 165.11899771 164.55148563 165.75525259 165.15791995 C167.4464147 166.83815677 167.4464147 166.83815677 169.8839147 169.82741458 C169.6449143 173.44191269 167.86915349 175.21637424 165.37862658 177.70463951 C164.62218888 178.46766704 163.86575119 179.23069458 163.08639114 180.01684416 C162.24653421 180.84864469 161.40667729 181.68044521 160.54137015 182.53745181 C159.65594583 183.42614497 158.77052152 184.31483812 157.85826617 185.23046137 C155.39714932 187.70024275 152.92674534 190.16054925 150.4547497 192.6194355 C147.79137774 195.27192636 145.13665194 197.93304571 142.48085379 200.59311588 C137.27408431 205.8055259 132.05936277 211.00991041 126.84198354 216.21169816 C120.7646813 222.27147312 114.69543397 228.33928868 108.62656176 234.40750435 C97.7931964 245.23918047 86.95277932 256.06377142 76.10827994 266.88429935 C65.59145507 277.37789397 55.07916074 287.87599792 44.57214712 298.37941654 C43.92576804 299.02557286 43.27938895 299.67172918 42.61342262 300.33746599 C41.31123212 301.63921387 40.00904192 302.94096205 38.70685202 304.24271052 C38.06444529 304.88489768 37.42203856 305.52708484 36.76016497 306.18873222 C36.11935731 306.82932389 35.47854965 307.46991557 34.81832357 308.12991911 C24.80093673 318.14359926 14.77972397 328.15345007 4.75798872 338.16277806 C1.12917884 341.78716011 -2.49913767 345.41203523 -6.1271105 349.03725516 C-11.88670388 354.79240479 -17.6479747 360.54586439 -23.41260196 366.29597222 C-26.04563661 368.92242486 -28.67791817 371.54961959 -31.30805994 374.17896945 C-34.16421216 377.03418319 -37.02423543 379.88548807 -39.88465524 382.73642642 C-41.12101806 383.97408896 -41.12101806 383.97408896 -42.3823579 385.23675479 C-46.53842805 389.37221795 -50.77691804 393.33085456 -55.21821839 397.15733422 C-58.36095498 399.92287202 -61.31253122 402.87236972 -64.27296091 405.83039005 C-64.94612091 406.49916779 -65.61928091 407.16794554 -66.31283969 407.85698928 C-68.54525225 410.07615348 -70.77417394 412.29878884 -73.00304819 414.52150638 C-74.61156754 416.1221147 -76.22026572 417.72254333 -77.82912851 419.32280643 C-83.086066 424.55367378 -88.33768366 429.7898647 -93.58874155 435.02663333 C-95.39905673 436.83158561 -97.20937921 438.63653057 -99.01970888 440.44146831 C-106.54287387 447.94304069 -114.06468817 455.44596287 -121.58263136 462.9527684 C-123.52694993 464.89415771 -125.47128475 466.83553075 -127.41564585 468.77687747 C-128.1404586 469.50057116 -128.1404586 469.50057116 -128.87991405 470.23888491 C-136.731927 478.07820634 -144.59418187 485.90717355 -152.46060367 493.73203347 C-160.54410426 501.77317442 -168.61799159 509.82384992 -176.68316478 517.88338126 C-181.20909863 522.40565294 -185.73916396 526.92360144 -190.27940203 531.43151576 C-194.54120266 535.66340091 -198.79115882 539.90682104 -203.03210474 544.15960224 C-204.59394391 545.72166342 -206.16010565 547.27941576 -207.73076463 548.83260829 C-209.86620383 550.9455759 -211.98584838 553.07319425 -214.10206247 555.20539005 C-214.73374293 555.82318842 -215.36542338 556.44098678 -216.01624567 557.07750631 C-217.91435328 558.95132589 -217.91435328 558.95132589 -220.1160853 561.82741458 C-219.88660286 565.52270578 -217.98026354 567.33722376 -215.43962259 569.87532211 C-214.24508195 571.07959123 -214.24508195 571.07959123 -213.02640919 572.30818902 C-212.14022883 573.18620249 -211.25404847 574.06421596 -210.34101415 574.9688359 C-209.39440115 575.91736368 -208.44844736 576.86654972 -207.50309638 577.8163353 C-204.88795682 580.43988055 -202.26349294 583.05392486 -199.63749835 585.66659875 C-196.78818007 588.50474415 -193.9475525 591.35156473 -191.10584099 594.19732274 C-186.11911248 599.18874002 -181.12682214 604.17454026 -176.13090158 609.15675647 C-168.70210181 616.5652349 -161.28189236 623.98227219 -153.86347376 631.40114394 C-141.38547683 643.8794343 -128.90056902 656.35078836 -116.41181398 668.81831081 C-104.041678 681.16748996 -91.67485171 693.51996871 -79.31237627 705.87681682 C-78.54440889 706.64443285 -77.77644152 707.41204889 -76.9852024 708.20292601 C-73.08527392 712.1011117 -69.18541008 715.99936205 -65.28557463 719.89764081 C-37.64493917 747.52707954 -9.99772967 775.14993117 17.65369009 802.76857669 C24.35779008 809.46474524 31.06188277 816.16092109 37.76593374 822.8571387 C38.59757825 823.6878113 39.42922276 824.5184839 40.28606861 825.37432839 C59.60754698 844.67334138 78.92638707 863.97499448 98.2445104 883.27736576 C99.07208585 884.10426356 99.8996613 884.93116137 100.7523148 885.78311669 C119.63439149 904.6497597 138.51572981 923.51714145 157.39613604 942.38545616 C158.18891134 943.17772166 158.98168664 943.96998717 159.79848543 944.78626072 C166.92858631 951.91177882 174.05868331 959.03730081 181.18865673 966.16294645 C199.75902976 984.7220198 218.33163872 1003.27884933 236.90814243 1021.83178632 C248.55409484 1033.46303083 260.19843982 1045.09588289 271.84149224 1056.73003033 C279.22284344 1064.10559432 286.60566129 1071.4796837 293.99048195 1078.85177391 C298.91341615 1083.76648091 303.83457939 1088.68295629 308.7542698 1093.60091036 C311.56377728 1096.40931329 314.37410688 1099.21688083 317.18662047 1102.02227351 C319.73918413 1104.56839772 322.2894918 1107.11675798 324.83792866 1109.66701254 C326.19933258 1111.02817095 327.56322109 1112.3868429 328.92717417 1113.7454469 C329.72103108 1114.54078242 330.51488798 1115.33611795 331.33280116 1116.15555454 C332.36942474 1117.19093733 332.36942474 1117.19093733 333.42699021 1118.24723693 C334.8839147 1119.82741458 334.8839147 1119.82741458 334.8839147 1120.82741458 C247.7595716 1136.78642426 156.3054665 1146.74168069 -38.67382621 1096.04043972 C-79.55739275 1067.66844524 -115.55660917 1032.90596807 -150.4988978 997.67116458 C-152.04582241 996.11486267 -153.59279051 994.55860399 -155.13980211 993.00238855 C-193.0232402 954.84954976 -229.36032837 915.35230148 -265.0898324 875.18599577 C-288.2205503 849.18313269 -311.75095707 823.61447947 -335.70397592 798.36696536 C-336.50172577 797.52581189 -337.29947561 796.68465841 -338.12139969 795.81801543 C-346.13929874 787.36468883 -354.16459786 778.91841878 -362.1953186 770.47727296 C-378.52826931 753.30926012 -394.81180321 736.09472821 -411.06527353 718.85146243 C-411.81125811 718.06017217 -412.55724269 717.26888191 -413.32583286 716.45361315 C-462.433125 664.35263773 -510.3794863 611.18323154 -558.1160853 557.82741458 C-556.66941685 554.51421604 -554.86772169 552.32787894 -552.32002676 549.77720572 C-551.52244395 548.97384719 -550.72486113 548.17048866 -549.90310914 547.34278594 C-549.02069918 546.46420077 -548.13828923 545.5856156 -547.22913957 544.68040664 C-546.28278709 543.73105829 -545.33687223 542.78127351 -544.39135677 541.8310915 C-541.77874276 539.20815735 -539.15990047 536.59151878 -536.5400376 533.9758277 C-533.69591657 531.13406528 -530.85755903 528.28655623 -528.01846612 525.43977202 C-523.03747227 520.44691107 -518.05272646 515.45782038 -513.06552912 510.47115619 C-505.64962415 503.05604315 -498.23939417 495.63527832 -490.83022458 488.21343609 C-476.05841234 473.41686135 -461.27860284 458.62828946 -446.49691068 443.8415857 C-445.7311113 443.07552514 -444.96531192 442.30946458 -444.17630649 441.52019007 C-443.40901503 440.75263834 -442.64172357 439.9850866 -441.85118085 439.19427572 C-433.35737542 430.69739089 -424.86528287 422.19879473 -416.37325311 413.7001353 C-390.73924052 388.0464744 -365.10360704 362.39443608 -339.46117998 336.74918563 C-338.6407083 335.92861989 -337.82023662 335.10805415 -336.97490217 334.26262279 C-333.64970954 330.93705167 -330.32450966 327.6114878 -326.99930804 324.28592568 C-324.49640265 321.78274857 -321.99349974 319.27956898 -319.49059702 316.77638919 C-318.25001595 315.53567609 -318.25001595 315.53567609 -316.98437264 314.26989808 C-290.98158951 288.2642077 -264.98842705 262.24893376 -239.00231577 236.22658451 C-209.82954718 207.01313545 -180.64832142 177.80816886 -151.45535577 148.61490191 C-148.34572191 145.50517122 -145.23612301 142.39540559 -142.12654901 139.28561504 C-141.36084634 138.51986825 -140.59514367 137.75412146 -139.80623788 136.96517023 C-127.45813809 124.61594829 -115.11821659 112.25858512 -102.78112262 99.89836932 C-90.39439176 87.48885368 -77.99845386 75.0885954 -65.59300008 62.69779608 C-58.21396431 55.32694253 -50.84201364 47.94916187 -43.47984502 40.56146018 C-38.56993581 35.6358918 -33.65110872 30.71935443 -28.72473329 25.81025518 C-25.91251223 23.00737803 -23.10451471 20.20058335 -20.30723348 17.38278929 C-17.76718804 14.82427499 -15.21611819 12.2773455 -12.65538992 9.73953667 C-11.29352139 8.38384878 -9.94402491 7.01576786 -8.59493262 5.64736531 C-7.79234277 4.85652438 -6.98975292 4.06568344 -6.16284216 3.25087763 C-5.12749007 2.21502691 -5.12749007 2.21502691 -4.07122178 1.15824991 C-2.1160853 -0.17258542 -2.1160853 -0.17258542 0 0 Z " fill="#FD7E6F" transform="translate(828.1160852983594,608.1725854165852)"/>
</svg>
